<svg xmlns="http://www.w3.org/2000/svg" width="46" height="46" viewBox="0 0 46 46">
  <g fill="none" fill-rule="evenodd">
    <path d="M23 9.818c3.15 0 5.97 1.08 8.19 2.86l6.13-6.13C33.13 3.13 28.39 1 23 1 14.61 1 7.23 6.13 3.67 13.09l7.51 5.83C12.13 14.13 17.13 9.818 23 9.818z" fill="#EA4335"/>
    <path d="M44.5 23.5c0-1.54-.14-3.02-.41-4.45H23v8.45h12.13c-.52 2.8-2.09 5.17-4.45 6.77l7.01 5.45C41.87 36.87 44.5 30.87 44.5 23.5z" fill="#4285F4"/>
    <path d="M10.18 27.09c-1.09-2.09-1.72-4.45-1.72-6.99s.63-4.9 1.72-6.99l-7.51-5.83C1.13 11.13 0 16.13 0 21.5s1.13 10.37 2.67 14.22l7.51-5.83z" fill="#FBBC05"/>
    <path d="M23 44c5.39 0 10.13-1.79 13.87-4.88l-7.01-5.45c-1.94 1.3-4.39 2.07-6.86 2.07-5.87 0-10.87-4.31-12.82-10.09l-7.51 5.83C7.23 39.87 14.61 44 23 44z" fill="#34A853"/>
    <path d="M44.5 23.5c0-1.54-.14-3.02-.41-4.45H23v8.45h12.13c-.52 2.8-2.09 5.17-4.45 6.77l7.01 5.45C41.87 36.87 44.5 30.87 44.5 23.5z" fill-opacity=".15"/>
  </g>
</svg> 