<svg width="16" height="16" viewBox="0 0 16 16" fill="none" xmlns="http://www.w3.org/2000/svg">
<g clip-path="url(#clip0_1_9)">
<path fill-rule="evenodd" clip-rule="evenodd" d="M4.6087 5.8088C5.57343 6.03913 6.74147 6.1739 8 6.1739C9.25853 6.1739 10.4266 6.03913 11.3913 5.8088C12.3048 5.59073 13.3322 5.0777 13.7854 4.7216L8.28287 13.5464C8.15237 13.7557 7.84763 13.7557 7.71713 13.5464L2.21458 4.7216C2.66777 5.0777 3.6952 5.59073 4.6087 5.8088Z" fill="#0D141C"/>
<path fill-rule="evenodd" clip-rule="evenodd" d="M13.3327 4.07867C13.3315 4.08457 13.3292 4.09483 13.3249 4.1098C13.3145 4.14663 13.2983 4.19137 13.2782 4.23917C13.2723 4.25323 13.2663 4.2669 13.2604 4.27993C12.8368 4.57043 11.9929 4.97977 11.2365 5.16037C10.3292 5.377 9.21376 5.50723 8 5.50723C6.78623 5.50723 5.67083 5.377 4.7635 5.16037C4.0004 4.9782 3.14835 4.56323 2.72846 4.27227C2.72461 4.26417 2.72072 4.25567 2.71684 4.24693C2.69973 4.2083 2.68573 4.17047 2.67659 4.137C2.66785 4.10507 2.66679 4.0889 2.66668 4.08707C2.66666 4.0869 2.66668 4.087 2.66668 4.08707C2.66668 4.07863 2.67013 3.97443 2.89495 3.78953C3.11515 3.60847 3.47407 3.41563 3.97637 3.24092C4.97473 2.89366 6.3973 2.66667 8 2.66667C9.6027 2.66667 11.0253 2.89366 12.0236 3.24092C12.5259 3.41563 12.8848 3.60847 13.105 3.78953C13.3002 3.95003 13.3286 4.04963 13.3327 4.07867ZM1.65059 5.07707L7.15143 13.8991C7.54293 14.527 8.45707 14.527 8.84857 13.8991L14.3511 5.07433C14.357 5.06493 14.3626 5.0554 14.368 5.0457L13.7854 4.7216C14.368 5.0457 14.3679 5.0458 14.368 5.0457L14.3688 5.04417L14.37 5.04203L14.3733 5.03607C14.3759 5.03133 14.3792 5.02513 14.3832 5.01757C14.3913 5.0025 14.4021 4.98183 14.4147 4.9567C14.4397 4.90693 14.4732 4.837 14.5072 4.7561C14.5634 4.62263 14.6667 4.3563 14.6667 4.08697C14.6667 3.5191 14.3343 3.07418 13.9519 2.7597C13.5649 2.44142 13.0451 2.18454 12.4617 1.98159C11.2885 1.57352 9.711 1.33333 8 1.33333C6.289 1.33333 4.71153 1.57352 3.53833 1.98159C2.95487 2.18454 2.43509 2.44143 2.04806 2.7597C1.66565 3.07418 1.33333 3.5191 1.33333 4.08697C1.33333 4.37583 1.43088 4.63593 1.49773 4.7869C1.53458 4.87007 1.57116 4.93987 1.59895 4.98963C1.61299 5.0148 1.62515 5.0355 1.6345 5.05097C1.63918 5.05873 1.64318 5.06523 1.64638 5.07037L1.64887 5.07433L1.65059 5.07707ZM11.9956 6.332L8 12.74L4.00436 6.332C4.15536 6.3797 4.30596 6.42193 4.4539 6.45727C5.47603 6.7013 6.6967 6.84057 8 6.84057C9.3033 6.84057 10.524 6.7013 11.5461 6.45727C11.694 6.42193 11.8446 6.3797 11.9956 6.332Z" fill="#0D141C"/>
</g>
<defs>
<clipPath id="clip0_1_9">
<rect width="16" height="16" fill="white"/>
</clipPath>
</defs>
</svg> 